<svg enable-background="new 0 0 60 60" height="512" viewBox="0 0 60 60" width="512" xmlns="http://www.w3.org/2000/svg"><path d="m30 48c-9.925 0-18-8.075-18-18s8.075-18 18-18 18 8.075 18 18-8.075 18-18 18zm0-34c-8.823 0-16 7.178-16 16s7.177 16 16 16 16-7.178 16-16-7.177-16-16-16z"/><path d="m17 31c-.552 0-1-.447-1-1 0-7.72 6.28-14 14-14 .552 0 1 .447 1 1s-.448 1-1 1c-6.617 0-12 5.383-12 12 0 .553-.448 1-1 1z"/><path d="m30 44c-.552 0-1-.447-1-1s.448-1 1-1c6.617 0 12-5.383 12-12 0-.553.448-1 1-1s1 .447 1 1c0 7.72-6.28 14-14 14z"/><path d="m32 31h-6c-.552 0-1-.447-1-1v-6c0-.553.448-1 1-1h6c2.206 0 4 1.794 4 4s-1.794 4-4 4zm-5-2h5c1.103 0 2-.897 2-2s-.897-2-2-2h-5z"/><path d="m32 37h-6c-.552 0-1-.447-1-1v-6c0-.553.448-1 1-1h6c2.206 0 4 1.794 4 4s-1.794 4-4 4zm-5-2h5c1.103 0 2-.897 2-2s-.897-2-2-2h-5z"/><path d="m28 25c-.552 0-1-.447-1-1v-3c0-.553.448-1 1-1s1 .447 1 1v3c0 .553-.448 1-1 1z"/><path d="m32 25c-.552 0-1-.447-1-1v-3c0-.553.448-1 1-1s1 .447 1 1v3c0 .553-.448 1-1 1z"/><path d="m28 40c-.552 0-1-.447-1-1v-3c0-.553.448-1 1-1s1 .447 1 1v3c0 .553-.448 1-1 1z"/><path d="m32 40c-.552 0-1-.447-1-1v-3c0-.553.448-1 1-1s1 .447 1 1v3c0 .553-.448 1-1 1z"/><path d="m26 25h-2c-.552 0-1-.447-1-1s.448-1 1-1h2c.552 0 1 .447 1 1s-.448 1-1 1z"/><path d="m26 37h-2c-.552 0-1-.447-1-1s.448-1 1-1h2c.552 0 1 .447 1 1s-.448 1-1 1z"/><path d="m10 14c-3.308 0-6-2.691-6-6s2.692-6 6-6 6 2.691 6 6-2.692 6-6 6zm0-10c-2.206 0-4 1.794-4 4s1.794 4 4 4 4-1.794 4-4-1.794-4-4-4z"/><path d="m43 12c-3.308 0-6-2.691-6-6s2.692-6 6-6 6 2.691 6 6-2.692 6-6 6zm0-10c-2.206 0-4 1.794-4 4s1.794 4 4 4 4-1.794 4-4-1.794-4-4-4z"/><path d="m6 49c-3.308 0-6-2.691-6-6s2.692-6 6-6 6 2.691 6 6-2.692 6-6 6zm0-10c-2.206 0-4 1.794-4 4s1.794 4 4 4 4-1.794 4-4-1.794-4-4-4z"/><path d="m39 60c-3.308 0-6-2.691-6-6s2.692-6 6-6 6 2.691 6 6-2.692 6-6 6zm0-10c-2.206 0-4 1.794-4 4s1.794 4 4 4 4-1.794 4-4-1.794-4-4-4z"/><path d="m56 50c-2.206 0-4-1.794-4-4s1.794-4 4-4 4 1.794 4 4-1.794 4-4 4zm0-6c-1.103 0-2 .897-2 2s.897 2 2 2 2-.897 2-2-.897-2-2-2z"/><path d="m56 19c-2.206 0-4-1.794-4-4s1.794-4 4-4 4 1.794 4 4-1.794 4-4 4zm0-6c-1.103 0-2 .897-2 2s.897 2 2 2 2-.897 2-2-.897-2-2-2z"/><path d="m20 58c-2.206 0-4-1.794-4-4s1.794-4 4-4 4 1.794 4 4-1.794 4-4 4zm0-6c-1.103 0-2 .897-2 2s.897 2 2 2 2-.897 2-2-.897-2-2-2z"/><path d="m38.999 50c-.448 0-.856-.303-.969-.758l-1-4c-.134-.535.192-1.078.728-1.212.534-.134 1.079.191 1.213.728l1 4c.134.535-.192 1.078-.728 1.212-.082.02-.163.03-.244.03z"/><path d="m34 55h-11c-.552 0-1-.447-1-1s.448-1 1-1h11c.552 0 1 .447 1 1s-.448 1-1 1z"/><path d="m11 44c-.416 0-.805-.262-.947-.678-.178-.522.101-1.091.624-1.269l6-2.046c.523-.182 1.091.101 1.269.624.178.522-.101 1.091-.624 1.269l-6 2.046c-.106.037-.215.054-.322.054z"/><path d="m17.001 20c-.347 0-.685-.181-.869-.504l-4-7c-.274-.479-.107-1.09.372-1.364.48-.274 1.091-.107 1.364.372l4 7c.274.479.107 1.09-.372 1.364-.156.09-.327.132-.495.132z"/><path d="m37.999 16c-.209 0-.419-.065-.599-.2-.442-.331-.531-.958-.2-1.399l3-4c.332-.442.958-.53 1.4-.2.442.331.531.958.2 1.399l-3 4c-.196.262-.497.4-.801.4z"/><path d="m53.641 14.151c-.181 0-.364-.049-.529-.152l-6.642-4.151c-.468-.292-.611-.909-.318-1.378.292-.468.909-.611 1.378-.317l6.642 4.151c.468.292.611.909.318 1.378-.19.303-.515.469-.849.469z"/><path d="m53.532 45.296c-.164 0-.331-.04-.485-.126l-9.22-5.122c-.483-.269-.657-.877-.389-1.359s.877-.658 1.36-.389l9.22 5.122c.483.269.657.877.389 1.359-.182.329-.523.515-.875.515z"/></svg>